PathFileType	4	(X/Y/Z)	D:\TRACE\v60_Jaco2_6-2-23\JustBodyDRS_Motion3_2-platform.trc
DataRate	CameraRate	NumFrames	NumMarkers	Units	OrigDataRate	OrigDataStartFrame	OrigNumFrames
100.00	100.00	      35	5	mm	100.00	1751	      7000
Frame#	Time	Left_Front			Right_Front			Left_Aft			Right_Aft			Post			
		X1	Y1	Z1	X2	Y2	Z2	X3	Y3	Z3	X4	Y4	Z4	X5	Y5	Z5	

1751	17.500	-810.40741	-1.34401	-653.72150	759.72943	-3.38433	-630.85315	-742.24493	18.85269	480.12823	672.36212	17.93738	585.87744	-14.72584	1290.72034	-987.90796	
1752	17.510	-810.51324	-1.87208	-653.73053	759.69666	-3.99923	-630.98816	-742.38574	19.47423	479.97131	672.27875	18.40050	585.74390	-14.44347	1289.60730	-989.17377	
1753	17.520	-810.84149	-2.70183	-654.06390	759.79474	-4.53468	-631.11560	-742.41443	19.97693	479.65701	672.40576	18.83979	585.42902	-14.39290	1288.69946	-990.42261	
1754	17.530	-810.91565	-3.47558	-654.16138	759.82562	-5.33046	-631.35370	-742.34326	20.30325	479.41010	671.77795	18.70887	585.09827	-14.58806	1287.65271	-992.04572	
1755	17.540	-810.70819	-4.09166	-654.25092	759.76880	-6.01716	-631.55719	-742.30231	20.74911	479.11642	671.98260	19.54171	584.89087	-14.36672	1286.49536	-993.55432	
1756	17.550	-810.66437	-5.00022	-654.31519	759.68542	-6.79628	-631.61212	-742.29150	21.29134	478.87405	672.35016	20.67553	584.72333	-14.51419	1285.40967	-995.49921	
1757	17.560	-810.95367	-5.98329	-654.96558	759.65582	-7.67472	-631.67017	-742.37012	21.93247	478.82556	672.13837	21.37560	584.39514	-14.45355	1284.07263	-996.93622	
1758	17.570	-810.98901	-6.15098	-654.79346	759.79303	-8.32041	-631.92950	-742.35889	22.33270	478.82010	672.06635	21.51687	584.50171	-14.89596	1282.80469	-998.87335	
1759	17.580	-810.58972	-7.49001	-654.58643	759.74591	-9.11141	-632.22595	-742.36694	22.95679	478.44992	672.67664	22.29287	584.32910	-14.21389	1281.88489	-1000.93311	
1760	17.590	-810.98938	-8.28735	-655.10175	759.93213	-9.70386	-632.27991	-742.27197	23.39255	478.39740	672.49841	22.98880	584.03973	-14.50057	1280.70715	-1003.02826	
1761	17.600	-810.77338	-8.70077	-655.39789	760.01300	-10.58188	-632.46869	-742.03387	23.86447	478.04785	672.83630	23.71643	583.76202	-13.98828	1279.59949	-1004.64026	
1762	17.610	-810.76276	-9.38560	-655.71362	760.07489	-11.66160	-632.68127	-741.95135	24.40955	477.82050	672.89661	24.33447	583.52417	-14.06841	1278.21729	-1006.30072	
1763	17.620	-810.54822	-10.05718	-655.98077	760.30566	-12.23947	-632.74634	-741.77148	24.99183	477.76431	673.02679	24.77586	583.39929	-13.40934	1276.82275	-1007.80933	
1764	17.630	-810.31281	-11.18435	-655.94867	760.62537	-13.07423	-633.00812	-741.67542	25.81019	477.22159	673.41992	25.53267	583.18890	-13.66125	1275.78320	-1009.60376	
1765	17.640	-809.99780	-11.94098	-656.10938	760.79175	-13.81443	-633.33057	-741.16669	26.07898	477.23770	673.61713	26.24198	582.87817	-13.27572	1274.28149	-1011.06189	
1766	17.650	-809.72034	-12.90657	-656.38580	760.93884	-14.80349	-633.45746	-740.95764	26.38853	477.12378	673.69171	26.87732	582.67334	-13.26055	1273.00989	-1012.47809	
1767	17.660	-809.26581	-14.25341	-656.91205	761.17664	-15.83379	-633.70361	-740.80243	26.99779	476.87192	674.09528	27.94981	582.43372	-12.76077	1271.64746	-1014.51398	
1768	17.670	-809.18628	-14.76791	-656.50073	761.29779	-16.61171	-633.73962	-740.55743	27.57232	476.79062	674.28357	28.52799	582.28156	-12.42924	1270.22644	-1016.07446	
1769	17.680	-808.79132	-15.98723	-656.72589	761.87036	-17.77118	-634.31946	-740.35706	28.47906	476.55954	674.58765	29.16837	581.90576	-12.42204	1268.51062	-1018.20551	
1770	17.690	-808.47925	-16.69345	-656.82501	762.16656	-18.71210	-634.68140	-739.99207	28.94512	476.33160	674.80585	30.09051	581.80920	-11.85620	1267.36780	-1020.13031	
1771	17.700	-808.32483	-17.39820	-656.77148	762.78766	-19.64917	-634.77771	-739.44305	29.63192	475.91434	675.37183	30.84501	581.36572	-11.68228	1265.82861	-1022.41260	
1772	17.710	-808.05109	-18.54028	-657.31726	762.94940	-20.50434	-634.92578	-739.08502	29.92163	475.89801	675.43018	31.16127	580.95721	-11.21114	1264.26343	-1024.64404	
1773	17.720	-807.14130	-21.19876	-658.10913	763.36176	-21.56158	-635.12695	-738.93695	30.75215	475.52682	675.97638	32.29262	580.88300	-10.72759	1262.77783	-1027.07751	
1774	17.730	-806.55756	-21.51472	-657.91187	763.71313	-22.62733	-635.29175	-738.55023	31.68472	475.24194	676.54907	33.06273	580.66248	-10.36114	1261.24670	-1029.36157	
1775	17.740	-806.39703	-22.19165	-658.12842	764.05499	-23.48535	-635.32782	-738.19708	32.25315	475.03339	676.57825	33.73930	580.47607	-9.84077	1259.81763	-1031.59875	
1776	17.750	-806.17511	-23.15219	-658.35785	764.43756	-24.31170	-635.54193	-737.64038	32.71473	474.60831	677.39673	34.60856	580.14606	-9.46326	1258.27429	-1033.86279	
1777	17.760	-805.55823	-23.77812	-658.33923	764.89069	-25.20994	-635.81232	-737.19781	33.42252	474.30313	677.85211	35.41294	580.01379	-9.00473	1256.84668	-1035.95496	
1778	17.770	-805.26337	-24.43927	-658.62457	765.24652	-26.11929	-636.10931	-736.78851	34.05616	474.05750	678.14368	35.89114	579.62726	-8.51181	1255.24207	-1037.68542	
1779	17.780	-804.27411	-25.63450	-658.56128	765.80988	-26.90081	-636.20605	-736.31274	34.74677	473.89548	678.55133	36.95367	579.30756	-8.21745	1253.43823	-1039.53186	
1780	17.790	-804.44519	-27.02400	-659.46942	766.54370	-28.35892	-636.45825	-735.72406	35.34076	473.77325	679.03003	37.80566	578.98358	-7.80963	1251.87415	-1041.21167	
1781	17.800	-803.71826	-27.97644	-659.02124	767.15961	-29.38392	-636.50629	-734.91974	36.01933	473.50287	679.71399	38.50218	578.76361	-7.19361	1250.53809	-1043.07202	
1782	17.810	-803.12085	-29.15388	-659.11664	767.42261	-30.51261	-636.78253	-734.55298	36.81773	473.18198	680.36914	39.48569	578.48767	-6.45691	1248.65186	-1044.86719	
1783	17.820	-802.67224	-29.90444	-659.25684	767.95679	-31.36738	-636.86603	-734.22803	37.50062	472.84366	680.64581	40.11450	578.18262	-5.68626	1247.05078	-1046.76111	
1784	17.830	-801.92694	-30.74824	-659.48956	768.51318	-32.33175	-637.01318	-733.53229	38.08170	472.64209	681.27484	40.94717	577.76276	-5.36275	1245.37463	-1049.25281	
1785	17.840	-801.65674	-31.73457	-659.96887	769.06653	-33.58894	-637.28333	-733.16272	38.75519	472.26547	681.71521	41.87337	577.63916	-5.12987	1243.82898	-1051.48828	
